# xmcd
#
# Track frame offsets:
#	150
#	10965
#	24302
#	40310
#	54345
#	66787
#	82362
#	90022
#	106600
#	117087
#
# Disc length: 1849
#
# Revision: 3
# Processed by: cddbd v1.5.1PL0 Copyright (c) Steve Scherf et al.
# Submitted via: CDmax 1.9
# Normalized: r1:TDELIM( - ),TSWAP
#
DISCID=6d07370a
DTITLE=Various Artist - This is Sunday Morning Country
DYEAR=1998
DGENRE=Country
TTITLE0=Ricky Skaggs - Talk about Sufferin'
TTITLE1=The Statler Brothers - The Lord's Prayer
TTITLE2=Dottie West - His Eye is on the Sparrow
TTITLE3=Johnny Lee - Amazing Grace
TTITLE4=Tennessee Ernie Ford - Rock of Ages
TTITLE5=Charlie McCoy - From a Distance
TTITLE6=Connie Smith - Jesus is Calling
TTITLE7=Waylon Jennings - Precious Memories
TTITLE8=Patsy Cline - He Will do for You
TTITLE9=Lee Greenwood - How Great Thou Art
EXTD=
EXTT0=
EXTT1=
EXTT2=
EXTT3=
EXTT4=
EXTT5=
EXTT6=
EXTT7=
EXTT8=
EXTT9=
PLAYORDER=
